<?xml version="1.0" encoding="UTF-8" standalone="no"?>
<!DOCTYPE svg PUBLIC "-//W3C//DTD SVG 1.1//EN" "http://www.w3.org/Graphics/SVG/1.1/DTD/svg11.dtd"
[
<!ATTLIST g
  xmlns:vectornator CDATA #FIXED "http://vectornator.io"
  vectornator:layerName CDATA #IMPLIED >
<!ATTLIST g
  xmlns:vectornator CDATA #FIXED "http://vectornator.io"
  vectornator:mask CDATA #IMPLIED >
<!ATTLIST text
  xmlns:vectornator CDATA #FIXED "http://vectornator.io"
  vectornator:width CDATA #IMPLIED >
<!ATTLIST text
  xmlns:vectornator CDATA #FIXED "http://vectornator.io"
  vectornator:text CDATA #IMPLIED >

<!ATTLIST path
  xmlns:vectornator CDATA #FIXED "http://vectornator.io"
  vectornator:blendMode CDATA #IMPLIED >
<!ATTLIST path
  xmlns:vectornator CDATA #FIXED "http://vectornator.io"
  vectornator:shadowColor CDATA #IMPLIED >
<!ATTLIST path
  xmlns:vectornator CDATA #FIXED "http://vectornator.io"
  vectornator:shadowOpacity CDATA #IMPLIED >
<!ATTLIST path
  xmlns:vectornator CDATA #FIXED "http://vectornator.io"
  vectornator:shadowRadius CDATA #IMPLIED >
<!ATTLIST path
  xmlns:vectornator CDATA #FIXED "http://vectornator.io"
  vectornator:shadowOffset CDATA #IMPLIED >
<!ATTLIST path
  xmlns:vectornator CDATA #FIXED "http://vectornator.io"
  vectornator:shadowAngle CDATA #IMPLIED >

<!ATTLIST image
  xmlns:vectornator CDATA #FIXED "http://vectornator.io"
  vectornator:blendMode CDATA #IMPLIED >
<!ATTLIST image
  xmlns:vectornator CDATA #FIXED "http://vectornator.io"
  vectornator:shadowColor CDATA #IMPLIED >
<!ATTLIST image
  xmlns:vectornator CDATA #FIXED "http://vectornator.io"
  vectornator:shadowOpacity CDATA #IMPLIED >
<!ATTLIST image
  xmlns:vectornator CDATA #FIXED "http://vectornator.io"
  vectornator:shadowRadius CDATA #IMPLIED >
<!ATTLIST image
  xmlns:vectornator CDATA #FIXED "http://vectornator.io"
  vectornator:shadowOffset CDATA #IMPLIED >
<!ATTLIST image
  xmlns:vectornator CDATA #FIXED "http://vectornator.io"
  vectornator:shadowAngle CDATA #IMPLIED >

<!ATTLIST g
  xmlns:vectornator CDATA #FIXED "http://vectornator.io"
  vectornator:blendMode CDATA #IMPLIED >
<!ATTLIST g
  xmlns:vectornator CDATA #FIXED "http://vectornator.io"
  vectornator:shadowColor CDATA #IMPLIED >
<!ATTLIST g
  xmlns:vectornator CDATA #FIXED "http://vectornator.io"
  vectornator:shadowOpacity CDATA #IMPLIED >
<!ATTLIST g
  xmlns:vectornator CDATA #FIXED "http://vectornator.io"
  vectornator:shadowRadius CDATA #IMPLIED >
<!ATTLIST g
  xmlns:vectornator CDATA #FIXED "http://vectornator.io"
  vectornator:shadowOffset CDATA #IMPLIED >
<!ATTLIST g
  xmlns:vectornator CDATA #FIXED "http://vectornator.io"
  vectornator:shadowAngle CDATA #IMPLIED >

<!ENTITY % SVG.filter.extra.content  "| feDropShadow" >
<!ELEMENT feDropShadow EMPTY>
<!ATTLIST feDropShadow
  xmlns:svg CDATA #FIXED "http://www.w3.org/Graphics/SVG/1.1/DTD/svg11.dtd"
  dx CDATA #IMPLIED>
<!ATTLIST feDropShadow
  xmlns:svg CDATA #FIXED "http://www.w3.org/Graphics/SVG/1.1/DTD/svg11.dtd"
  dy CDATA #IMPLIED>
<!ATTLIST feDropShadow
  xmlns:svg CDATA #FIXED "http://www.w3.org/Graphics/SVG/1.1/DTD/svg11.dtd"
  stdDeviation CDATA #IMPLIED>
<!ATTLIST feDropShadow
  xmlns:svg CDATA #FIXED "http://www.w3.org/Graphics/SVG/1.1/DTD/svg11.dtd"
  flood-opacity CDATA #IMPLIED>
<!ATTLIST feDropShadow
  xmlns:svg CDATA #FIXED "http://www.w3.org/Graphics/SVG/1.1/DTD/svg11.dtd"
  in CDATA #IMPLIED>
<!ATTLIST feDropShadow
  xmlns:svg CDATA #FIXED "http://www.w3.org/Graphics/SVG/1.1/DTD/svg11.dtd"
  result CDATA #IMPLIED>
<!ATTLIST feDropShadow
  xmlns:svg CDATA #FIXED "http://www.w3.org/Graphics/SVG/1.1/DTD/svg11.dtd"
  flood-color CDATA #IMPLIED>
]
>
<!-- Created with Vectornator (http://vectornator.io/) -->
<svg height="100%" stroke-miterlimit="10" style="fill-rule:nonzero;clip-rule:evenodd;stroke-linecap:round;stroke-linejoin:round;" version="1.1" viewBox="0 0 147.744 25" width="100%" xml:space="preserve" xmlns="http://www.w3.org/2000/svg" xmlns:vectornator="http://vectornator.io" xmlns:xlink="http://www.w3.org/1999/xlink">
<defs/>
<g id="Untitled" vectornator:layerName="Untitled">
<g opacity="1">
<path d="M37 6.299L42.227 6.299C42.973 6.299 43.661 6.454 44.289 6.765C44.918 7.076 45.412 7.5 45.773 8.035C46.134 8.57 46.315 9.155 46.315 9.789C46.315 10.461 46.15 11.043 45.82 11.535C45.49 12.026 45.058 12.403 44.523 12.664L44.523 12.814C45.22 13.062 45.773 13.457 46.184 13.999C46.594 14.54 46.8 15.19 46.8 15.949C46.8 16.684 46.604 17.334 46.212 17.9C45.8125 18.4726 45.2636 18.9247 44.625 19.207C43.96 19.512 43.222 19.664 42.413 19.664L37 19.664L37 6.299ZM42.04 11.749C42.588 11.749 43.026 11.597 43.356 11.292C43.686 10.987 43.851 10.604 43.851 10.144C43.851 9.696 43.692 9.32 43.375 9.014C43.057 8.71 42.637 8.557 42.115 8.557L39.52 8.557L39.52 11.749C39.52 11.749 42.04 11.749 42.04 11.749ZM42.32 17.368C42.93 17.368 43.406 17.209 43.748 16.892C44.09 16.575 44.261 16.161 44.261 15.651C44.261 15.141 44.087 14.724 43.739 14.4C43.39 14.076 42.892 13.915 42.245 13.915L39.52 13.915L39.52 17.368C39.52 17.368 42.32 17.368 42.32 17.368ZM55.247 19.963C53.94 19.963 52.755 19.655 51.691 19.039C50.6412 18.4374 49.7736 17.5633 49.18 16.509C48.57 15.439 48.265 14.263 48.265 12.981C48.265 11.7 48.57 10.524 49.18 9.453C49.7735 8.39923 50.6407 7.52543 51.69 6.924C52.756 6.308 53.94 6 55.248 6C56.554 6 57.74 6.308 58.804 6.924C59.8534 7.52571 60.7206 8.39987 61.314 9.454C61.924 10.524 62.229 11.7 62.229 12.981C62.229 14.263 61.924 15.439 61.314 16.509C60.7206 17.5631 59.8534 18.4373 58.804 19.039C57.74 19.655 56.554 19.963 55.248 19.963L55.247 19.963ZM55.247 17.573C56.0373 17.581 56.8158 17.3818 57.505 16.995C58.1841 16.6147 58.7435 16.0522 59.12 15.371C59.512 14.674 59.708 13.877 59.708 12.981C59.708 12.085 59.512 11.289 59.12 10.592C58.7435 9.91077 58.1841 9.34829 57.505 8.968C56.8159 8.5809 56.0373 8.38126 55.247 8.389C54.4591 8.38031 53.6829 8.58006 52.997 8.968C52.3221 9.35052 51.7666 9.91268 51.392 10.592C51 11.289 50.804 12.085 50.804 12.982C50.804 13.877 51 14.674 51.392 15.371C51.7666 16.0503 52.3221 16.6125 52.997 16.995C53.683 17.3826 54.4592 17.582 55.247 17.573ZM70.6 19.963C69.293 19.963 68.108 19.655 67.044 19.039C65.9946 18.4373 65.1274 17.5631 64.534 16.509C63.924 15.439 63.619 14.263 63.619 12.981C63.619 11.7 63.924 10.524 64.533 9.453C65.1268 8.3991 65.9944 7.52529 67.044 6.924C68.108 6.308 69.294 6 70.6 6C71.907 6 73.092 6.308 74.156 6.924C75.2054 7.52571 76.0726 8.39987 76.666 9.454C77.276 10.524 77.581 11.7 77.581 12.981C77.581 14.263 77.276 15.439 76.667 16.509C76.0734 17.5633 75.2058 18.4374 74.156 19.039C73.092 19.655 71.906 19.963 70.6 19.963ZM70.6 17.573C71.3906 17.5812 72.1695 17.3819 72.859 16.995C73.5378 16.6146 74.0968 16.0521 74.473 15.371C74.865 14.674 75.061 13.877 75.061 12.981C75.061 12.085 74.865 11.289 74.473 10.592C74.0968 9.9109 73.5378 9.34844 72.859 8.968C72.1696 8.58073 71.3907 8.38108 70.6 8.389C69.8121 8.38031 69.0359 8.58006 68.35 8.968C67.6751 9.35052 67.1196 9.91268 66.745 10.592C66.353 11.289 66.157 12.085 66.157 12.982C66.157 13.877 66.353 14.674 66.745 15.371C67.1198 16.0505 67.6758 16.6126 68.351 16.995C69.0367 17.3824 69.8125 17.5818 70.6 17.573ZM79.83 6.3L82.35 6.3L82.35 12.03L82.5 12.03L87.39 6.3L90.433 6.3L90.433 6.449L85.6 11.973L90.938 19.515L90.938 19.664L87.858 19.664L83.864 13.971L82.352 15.744L82.352 19.664L79.832 19.664L79.832 6.299L79.83 6.3ZM93.779 6L97.027 6L100.573 15.39L100.723 15.39L104.268 6L107.535 6L107.535 19.365L105.034 19.365L105.034 12.776L105.184 10.555L105.034 10.555L101.636 19.365L99.676 19.365L96.26 10.555L96.111 10.555L96.261 12.776L96.261 19.366L93.778 19.366L93.778 6L93.779 6ZM114.579 6L117.473 6L122.494 19.365L119.713 19.365L118.593 16.173L113.478 16.173L112.358 19.365L109.577 19.365C109.577 19.365 114.579 6 114.579 6ZM117.772 13.859L116.596 10.499L116.11 8.893L115.961 8.893L115.476 10.499L114.281 13.859L117.771 13.859L117.772 13.859ZM124.553 6L129.425 6C130.296 6 131.071 6.18 131.749 6.541C132.427 6.902 132.953 7.403 133.326 8.044C133.7 8.684 133.886 9.41 133.886 10.219C133.886 11.077 133.616 11.839 133.074 12.505C132.539 13.1664 131.832 13.6672 131.03 13.952L131.012 14.082L134.596 19.216L134.596 19.366L131.702 19.366L128.249 14.344L127.073 14.344L127.073 19.365L124.553 19.365C124.553 19.365 124.553 6 124.553 6ZM129.406 12.03C129.979 12.03 130.446 11.855 130.806 11.507C131.167 11.158 131.348 10.717 131.348 10.181C131.348 9.671 131.176 9.236 130.834 8.875C130.492 8.514 130.028 8.333 129.444 8.333L127.073 8.333L127.073 12.029L129.406 12.029L129.406 12.03ZM136.636 6L139.156 6L139.156 11.73L139.306 11.73L144.196 6L147.239 6L147.239 6.15L142.404 11.675L147.744 19.216L147.744 19.366L144.664 19.366L140.668 13.672L139.156 15.445L139.156 19.365L136.636 19.365C136.636 19.365 136.636 6 136.636 6Z" fill="#ffffff" fill-rule="evenodd" opacity="1" stroke="none"/>
<g opacity="1">
<path d="M0 12.5C0 5.59644 5.59644 0 12.5 0C19.4036 0 25 5.59644 25 12.5C25 19.4036 19.4036 25 12.5 25C5.59644 25 0 19.4036 0 12.5Z" fill="#5267df" fill-rule="evenodd" opacity="1" stroke="none"/>
<path d="M9 9L9 19L12.54 15.56L16.078 19L16.078 9C16.078 7.89543 15.1826 7 14.078 7L11 7C9.89543 7 9 7.89543 9 9Z" fill="#ffffff" fill-rule="evenodd" opacity="1" stroke="none"/>
</g>
</g>
</g>
</svg>
